<svg id="Layer_1" data-name="Layer 1" xmlns="http://www.w3.org/2000/svg" viewBox="0 0 250 250"><defs><style>.cls-1{fill:#00b6cd;}.cls-2{fill:#faaf40;}.cls-3{fill:#be1e2d;}.cls-4{fill:#ee4036;}.cls-5{fill:#00adee;}.cls-6{fill:#0071bb;}</style></defs><polygon class="cls-1" points="125 100 125 150 125 150 168.3 125 125 100"/><polygon class="cls-2" points="168.3 75 125 100 168.3 125 168.3 75"/><polygon class="cls-3" points="81.7 75 125 100 125 50 81.7 75"/><polygon class="cls-4" points="125 50 125 100 168.3 75 125 50"/><polygon class="cls-5" points="81.7 175 125 200 125 150 125 150 125 150 81.7 175"/><polygon class="cls-6" points="125 150 81.7 125 81.7 175 125 150 125 150"/><polygon class="cls-5" points="125 150 125 150 125 150 125 150"/></svg>