<svg id="Layer_1" data-name="Layer 1" xmlns="http://www.w3.org/2000/svg" viewBox="0 0 619.53 250"><defs><style>.cls-1{fill:#fff;}</style></defs><path class="cls-1" d="M176.6,75.8h25c11.64,0,18,7.87,18,17.26s-6.42,17.09-18,17.09H188v19.18H176.6Zm23.52,9.79H188v14.77h12.12c4.49,0,7.86-2.89,7.86-7.38S204.61,85.59,200.12,85.59Z"/><path class="cls-1" d="M228.75,75.8h11.4v43.5h22.63v10h-34Z"/><path class="cls-1" d="M271,75.8h11.55v31.78c0,7.47,4.1,12.61,12.44,12.61s12.28-5.14,12.28-12.61V75.8H318.8v32.11c0,13.32-7.62,22.39-23.84,22.39s-24-9.15-24-22.31Z"/><path class="cls-1" d="M352.32,110.15H344v19.18h-11.4V75.8h25c11.16,0,18,7.31,18,17.26,0,9.47-5.94,14.52-11.72,15.89l12,20.38H362.84Zm3.61-24.56H344v14.77h11.95c4.58,0,8-2.89,8-7.38S360.51,85.59,355.93,85.59Z"/><path class="cls-1" d="M387.18,75.8h11.39v53.53H387.18Z"/><path class="cls-1" d="M412.38,75.8h28.17c10.19,0,15.41,6.5,15.41,13.65,0,6.74-4.18,11.23-9.23,12.28,5.7.88,10.27,6.42,10.27,13.16,0,8-5.38,14.44-15.57,14.44H412.38Zm25.68,21.51c3.85,0,6.26-2.49,6.26-5.94,0-3.29-2.41-5.86-6.26-5.86H423.77v11.8Zm.4,22.31c4.33,0,6.9-2.48,6.9-6.34,0-3.37-2.41-6.26-6.9-6.26H423.77v12.6Z"/><path class="cls-1" d="M468.27,75.8h11.55v31.78c0,7.47,4.1,12.61,12.44,12.61s12.28-5.14,12.28-12.61V75.8H516.1v32.11c0,13.32-7.62,22.39-23.84,22.39s-24-9.15-24-22.31Z"/><path class="cls-1" d="M531.65,113.12a23.44,23.44,0,0,0,17,7.23c6.26,0,9.31-3,9.31-6,0-4-4.66-5.38-10.84-6.83-8.75-2-20-4.41-20-16.37,0-8.91,7.7-16.13,20.3-16.13,8.51,0,15.57,2.57,20.87,7.46L562,90.81A22.84,22.84,0,0,0,546.66,85c-5.14,0-7.86,2.25-7.86,5.46,0,3.61,4.49,4.73,10.67,6.18,8.83,2,20.06,4.65,20.06,16.53,0,9.79-7,17.18-21.42,17.18-10.28,0-17.66-3.45-22.72-8.51Z"/><path class="cls-1" d="M176.6,147.72h9.55c8.35,0,13.88,5.7,13.88,13.4s-5.53,13.36-13.88,13.36H176.6ZM186.15,171c6.18,0,9.75-4.42,9.75-9.83s-3.45-9.87-9.75-9.87h-5.54V171Z"/><path class="cls-1" d="M216.83,147.72h4v26.76h-4Z"/><path class="cls-1" d="M251.47,147.28a12.58,12.58,0,0,1,10.59,5.29l-3.25,1.89a9.22,9.22,0,0,0-7.34-3.61c-5.58,0-9.75,4.25-9.75,10.27s4.17,10.31,9.75,10.31a10.41,10.41,0,0,0,6.78-2.65V164h-8.59v-3.53h12.6v9.83A14.23,14.23,0,0,1,251.47,175a13.47,13.47,0,0,1-13.89-13.88C237.58,152.77,243.8,147.28,251.47,147.28Z"/><path class="cls-1" d="M279.7,147.72h4v26.76h-4Z"/><path class="cls-1" d="M307.58,151.25h-8.3v-3.53h20.58v3.53h-8.27v23.23h-4Z"/><path class="cls-1" d="M349.49,168.94H336.37l-2.17,5.54h-4.41l10.63-26.76h5l10.64,26.76h-4.42Zm-12-3.57h10.79l-5.41-14.16Z"/><path class="cls-1" d="M371.22,147.72h4V171h12.16v3.53H371.22Z"/><polygon class="cls-1" points="95.1 102.08 134.8 125 95.1 147.92 95.1 102.08"/><polygon class="cls-1" points="96.91 98.96 136.6 76.04 136.6 121.88 96.91 98.96"/><polygon class="cls-1" points="51.8 72.92 91.5 50 91.5 95.84 51.8 72.92"/><polygon class="cls-1" points="95.1 50 134.8 72.92 95.1 95.84 95.1 50"/><polygon class="cls-1" points="51.8 177.08 91.5 154.16 91.5 200 51.8 177.08"/><polygon class="cls-1" points="50 128.12 89.7 151.04 50 173.96 50 128.12"/><polygon class="cls-1" points="93.3 151.04 93.3 151.04 93.3 151.04 93.3 151.04"/></svg>