<svg id="Layer_1" data-name="Layer 1" xmlns="http://www.w3.org/2000/svg" viewBox="0 0 492.93 390"><path d="M50,240.8H75c11.64,0,18,7.87,18,17.26s-6.42,17.09-18,17.09H61.4v19.18H50Zm23.52,9.79H61.4v14.77H73.52c4.49,0,7.86-2.89,7.86-7.38S78,250.59,73.52,250.59Z"/><path d="M102.15,240.8h11.4v43.5h22.63v10h-34Z"/><path d="M144.36,240.8h11.56v31.78c0,7.47,4.09,12.61,12.44,12.61,8.19,0,12.28-5.14,12.28-12.61V240.8H192.2v32.11c0,13.32-7.63,22.39-23.84,22.39-16.37,0-24-9.15-24-22.31Z"/><path d="M225.72,275.15h-8.35v19.18H206V240.8h25c11.15,0,18,7.31,18,17.26,0,9.47-5.94,14.52-11.72,15.89l12,20.38H236.23Zm3.61-24.56h-12v14.77h12c4.58,0,8-2.89,8-7.38S233.91,250.59,229.33,250.59Z"/><path d="M260.57,240.8H272v53.53h-11.4Z"/><path d="M285.77,240.8h28.17c10.2,0,15.41,6.5,15.41,13.65,0,6.74-4.17,11.23-9.23,12.28,5.7.88,10.28,6.42,10.28,13.16,0,8-5.38,14.44-15.57,14.44H285.77Zm25.69,21.51c3.85,0,6.26-2.49,6.26-5.94,0-3.29-2.41-5.86-6.26-5.86H297.17v11.8Zm.4,22.31c4.33,0,6.9-2.48,6.9-6.34,0-3.37-2.41-6.26-6.9-6.26H297.17v12.6Z"/><path d="M341.66,240.8h11.56v31.78c0,7.47,4.09,12.61,12.44,12.61,8.19,0,12.28-5.14,12.28-12.61V240.8H389.5v32.11c0,13.32-7.63,22.39-23.84,22.39-16.37,0-24-9.15-24-22.31Z"/><path d="M405.05,278.12a23.44,23.44,0,0,0,17,7.23c6.26,0,9.31-3,9.31-6,0-4-4.65-5.38-10.83-6.83-8.75-2-20-4.41-20-16.37,0-8.91,7.7-16.13,20.3-16.13,8.51,0,15.57,2.57,20.87,7.46l-6.34,8.35A22.88,22.88,0,0,0,420.06,250c-5.14,0-7.87,2.25-7.87,5.46,0,3.61,4.5,4.73,10.68,6.18,8.83,2,20.06,4.65,20.06,16.53,0,9.79-7,17.18-21.43,17.18-10.27,0-17.65-3.45-22.71-8.51Z"/><path d="M141.07,312.72h9.55c8.35,0,13.88,5.7,13.88,13.4s-5.53,13.36-13.88,13.36h-9.55ZM150.62,336c6.18,0,9.75-4.42,9.75-9.83s-3.45-9.87-9.75-9.87h-5.53V336Z"/><path d="M181.31,312.72h4v26.76h-4Z"/><path d="M215.94,312.28a12.58,12.58,0,0,1,10.59,5.29l-3.25,1.89a9.2,9.2,0,0,0-7.34-3.61c-5.58,0-9.75,4.25-9.75,10.27s4.17,10.31,9.75,10.31a10.41,10.41,0,0,0,6.78-2.65V329h-8.59v-3.53h12.6v9.83A14.23,14.23,0,0,1,215.94,340a13.47,13.47,0,0,1-13.88-13.88C202.06,317.77,208.27,312.28,215.94,312.28Z"/><path d="M244.17,312.72h4v26.76h-4Z"/><path d="M272.05,316.25h-8.3v-3.53h20.58v3.53h-8.26v23.23h-4Z"/><path d="M314,333.94H300.84l-2.17,5.54h-4.41l10.63-26.76h5l10.64,26.76h-4.42Zm-12-3.57h10.79l-5.41-14.16Z"/><path d="M335.69,312.72h4V336h12.16v3.53H335.69Z"/><polygon points="248.27 102.08 287.96 125 248.27 147.92 248.27 102.08"/><polygon points="250.07 98.96 289.77 76.04 289.77 121.88 250.07 98.96"/><polygon points="204.97 72.92 244.66 50 244.66 95.84 204.97 72.92"/><polygon points="248.27 50 287.96 72.92 248.27 95.84 248.27 50"/><polygon points="204.97 177.08 244.66 154.16 244.66 200 204.97 177.08"/><polygon points="203.16 128.12 242.86 151.04 203.16 173.96 203.16 128.12"/><polygon points="246.47 151.04 246.47 151.04 246.47 151.04 246.47 151.04"/></svg>