<?xml version="1.0" encoding="UTF-8" standalone="no"?>
<svg
   xmlns:dc="http://purl.org/dc/elements/1.1/"
   xmlns:cc="http://creativecommons.org/ns#"
   xmlns:rdf="http://www.w3.org/1999/02/22-rdf-syntax-ns#"
   xmlns:svg="http://www.w3.org/2000/svg"
   xmlns="http://www.w3.org/2000/svg"
   xmlns:sodipodi="http://sodipodi.sourceforge.net/DTD/sodipodi-0.dtd"
   xmlns:inkscape="http://www.inkscape.org/namespaces/inkscape"
   inkscape:version="1.0 (4035a4f, 2020-05-01)"
   height="290.00644"
   width="392.92999"
   sodipodi:docname="pluribus-logo-tall-color-on-white-nopadding.svg"
   version="1.1"
   viewBox="0 0 392.93 290.00644"
   data-name="Layer 1"
   id="Layer_1">
  <metadata
     id="metadata1539">
    <rdf:RDF>
      <cc:Work
         rdf:about="">
        <dc:format>image/svg+xml</dc:format>
        <dc:type
           rdf:resource="http://purl.org/dc/dcmitype/StillImage" />
        <dc:title></dc:title>
      </cc:Work>
    </rdf:RDF>
  </metadata>
  <sodipodi:namedview
     inkscape:current-layer="Layer_1"
     inkscape:window-maximized="0"
     inkscape:window-y="25"
     inkscape:window-x="0"
     inkscape:cy="145"
     inkscape:cx="196.465"
     inkscape:zoom="1.7102564"
     showgrid="false"
     id="namedview1537"
     inkscape:window-height="847"
     inkscape:window-width="1440"
     inkscape:pageshadow="2"
     inkscape:pageopacity="0"
     guidetolerance="10"
     gridtolerance="10"
     objecttolerance="10"
     borderopacity="1"
     bordercolor="#666666"
     pagecolor="#ffffff" />
  <defs
     id="defs1490">
    <style
       id="style1488">.cls-1{fill:#00b6cd;}.cls-2{fill:#faaf40;}.cls-3{fill:#be1e2d;}.cls-4{fill:#ee4036;}.cls-5{fill:#00adee;}.cls-6{fill:#0071bb;}</style>
  </defs>
  <path
     id="path1492"
     d="m 0,190.8 h 25 c 11.64,0 18,7.87 18,17.26 0,9.39 -6.42,17.09 -18,17.09 H 11.4 v 19.18 H 0 Z m 23.52,9.79 H 11.4 v 14.77 h 12.12 c 4.49,0 7.86,-2.89 7.86,-7.38 0,-4.49 -3.38,-7.39 -7.86,-7.39 z" />
  <path
     id="path1494"
     d="m 52.15,190.8 h 11.4 v 43.5 h 22.63 v 10 h -34 z" />
  <path
     id="path1496"
     d="m 94.36,190.8 h 11.56 v 31.78 c 0,7.47 4.09,12.61 12.44,12.61 8.19,0 12.28,-5.14 12.28,-12.61 V 190.8 h 11.56 v 32.11 c 0,13.32 -7.63,22.39 -23.84,22.39 -16.37,0 -24,-9.15 -24,-22.31 z" />
  <path
     id="path1498"
     d="m 175.72,225.15 h -8.35 v 19.18 H 156 V 190.8 h 25 c 11.15,0 18,7.31 18,17.26 0,9.47 -5.94,14.52 -11.72,15.89 l 12,20.38 h -13.05 z m 3.61,-24.56 h -12 v 14.77 h 12 c 4.58,0 8,-2.89 8,-7.38 0,-4.49 -3.42,-7.39 -8,-7.39 z" />
  <path
     id="path1500"
     d="M 210.57,190.8 H 222 v 53.53 h -11.4 z" />
  <path
     id="path1502"
     d="m 235.77,190.8 h 28.17 c 10.2,0 15.41,6.5 15.41,13.65 0,6.74 -4.17,11.23 -9.23,12.28 5.7,0.88 10.28,6.42 10.28,13.16 0,8 -5.38,14.44 -15.57,14.44 h -29.06 z m 25.69,21.51 c 3.85,0 6.26,-2.49 6.26,-5.94 0,-3.29 -2.41,-5.86 -6.26,-5.86 h -14.29 v 11.8 z m 0.4,22.31 c 4.33,0 6.9,-2.48 6.9,-6.34 0,-3.37 -2.41,-6.26 -6.9,-6.26 h -14.69 v 12.6 z" />
  <path
     id="path1504"
     d="m 291.66,190.8 h 11.56 v 31.78 c 0,7.47 4.09,12.61 12.44,12.61 8.19,0 12.28,-5.14 12.28,-12.61 V 190.8 h 11.56 v 32.11 c 0,13.32 -7.63,22.39 -23.84,22.39 -16.37,0 -24,-9.15 -24,-22.31 z" />
  <path
     id="path1506"
     d="m 355.05,228.12 a 23.44,23.44 0 0 0 17,7.23 c 6.26,0 9.31,-3 9.31,-6 0,-4 -4.65,-5.38 -10.83,-6.83 -8.75,-2 -20,-4.41 -20,-16.37 0,-8.91 7.7,-16.13 20.3,-16.13 8.51,0 15.57,2.57 20.87,7.46 l -6.34,8.35 A 22.88,22.88 0 0 0 370.06,200 c -5.14,0 -7.87,2.25 -7.87,5.46 0,3.61 4.5,4.73 10.68,6.18 8.83,2 20.06,4.65 20.06,16.53 0,9.79 -7,17.18 -21.43,17.18 -10.27,0 -17.65,-3.45 -22.71,-8.51 z" />
  <path
     id="path1508"
     d="m 91.07,262.72 h 9.55 c 8.35,0 13.88,5.7 13.88,13.4 0,7.7 -5.53,13.36 -13.88,13.36 h -9.55 z m 9.55,23.28 c 6.18,0 9.75,-4.42 9.75,-9.83 0,-5.41 -3.45,-9.87 -9.75,-9.87 H 95.09 V 286 Z" />
  <path
     id="path1510"
     d="m 131.31,262.72 h 4 v 26.76 h -4 z" />
  <path
     id="path1512"
     d="m 165.94,262.28 a 12.58,12.58 0 0 1 10.59,5.29 l -3.25,1.89 a 9.2,9.2 0 0 0 -7.34,-3.61 c -5.58,0 -9.75,4.25 -9.75,10.27 0,6.02 4.17,10.31 9.75,10.31 a 10.41,10.41 0 0 0 6.78,-2.65 V 279 h -8.59 v -3.53 h 12.6 v 9.83 a 14.23,14.23 0 0 1 -10.79,4.7 13.47,13.47 0 0 1 -13.88,-13.88 c 0,-8.35 6.21,-13.84 13.88,-13.84 z" />
  <path
     id="path1514"
     d="m 194.17,262.72 h 4 v 26.76 h -4 z" />
  <path
     id="path1516"
     d="m 222.05,266.25 h -8.3 v -3.53 h 20.58 v 3.53 h -8.26 v 23.23 h -4 z" />
  <path
     id="path1518"
     d="m 264,283.94 h -13.16 l -2.17,5.54 h -4.41 l 10.63,-26.76 h 5 l 10.64,26.76 h -4.42 z m -12,-3.57 h 10.79 l -5.41,-14.16 z" />
  <path
     id="path1520"
     d="m 285.69,262.72 h 4 V 286 h 12.16 v 3.53 h -16.16 z" />
  <polygon
     transform="translate(-50,-50)"
     id="polygon1522"
     points="246.47,150 289.77,125 246.47,100 246.47,150 "
     class="cls-1" />
  <polygon
     transform="translate(-50,-50)"
     id="polygon1524"
     points="289.77,125 289.77,75 246.47,100 "
     class="cls-2" />
  <polygon
     transform="translate(-50,-50)"
     id="polygon1526"
     points="246.47,50 203.16,75 246.47,100 "
     class="cls-3" />
  <polygon
     transform="translate(-50,-50)"
     id="polygon1528"
     points="289.77,75 246.47,50 246.47,100 "
     class="cls-4" />
  <polygon
     transform="translate(-50,-50)"
     id="polygon1530"
     points="246.47,150 246.47,150 246.47,150 203.16,175 246.47,200 "
     class="cls-5" />
  <polygon
     transform="translate(-50,-50)"
     id="polygon1532"
     points="203.16,175 246.47,150 203.16,125 "
     class="cls-6" />
  <polygon
     transform="translate(-50,-50)"
     id="polygon1534"
     points=""
     class="cls-5" />
</svg>
