<?xml version="1.0" encoding="UTF-8" standalone="no"?>
<svg
   xmlns:dc="http://purl.org/dc/elements/1.1/"
   xmlns:cc="http://creativecommons.org/ns#"
   xmlns:rdf="http://www.w3.org/1999/02/22-rdf-syntax-ns#"
   xmlns:svg="http://www.w3.org/2000/svg"
   xmlns="http://www.w3.org/2000/svg"
   xmlns:sodipodi="http://sodipodi.sourceforge.net/DTD/sodipodi-0.dtd"
   xmlns:inkscape="http://www.inkscape.org/namespaces/inkscape"
   inkscape:version="1.0 (4035a4f, 2020-05-01)"
   height="150"
   width="519.53003"
   sodipodi:docname="pluribus-logo-wide-color-on-white-nopadding.svg"
   version="1.1"
   viewBox="0 0 519.53 150"
   data-name="Layer 1"
   id="Layer_1">
  <metadata
     id="metadata884">
    <rdf:RDF>
      <cc:Work
         rdf:about="">
        <dc:format>image/svg+xml</dc:format>
        <dc:type
           rdf:resource="http://purl.org/dc/dcmitype/StillImage" />
        <dc:title></dc:title>
      </cc:Work>
    </rdf:RDF>
  </metadata>
  <sodipodi:namedview
     inkscape:current-layer="Layer_1"
     inkscape:window-maximized="0"
     inkscape:window-y="25"
     inkscape:window-x="0"
     inkscape:cy="75"
     inkscape:cx="259.765"
     inkscape:zoom="1.1492583"
     showgrid="false"
     id="namedview882"
     inkscape:window-height="480"
     inkscape:window-width="776"
     inkscape:pageshadow="2"
     inkscape:pageopacity="0"
     guidetolerance="10"
     gridtolerance="10"
     objecttolerance="10"
     borderopacity="1"
     bordercolor="#666666"
     pagecolor="#ffffff" />
  <defs
     id="defs835">
    <style
       id="style833">.cls-1{fill:#00b6cd;}.cls-2{fill:#faaf40;}.cls-3{fill:#be1e2d;}.cls-4{fill:#ee4036;}.cls-5{fill:#00adee;}.cls-6{fill:#0071bb;}</style>
  </defs>
  <path
     id="path837"
     d="m 126.6,25.8 h 25 c 11.64,0 18,7.87 18,17.26 0,9.39 -6.42,17.09 -18,17.09 H 138 v 19.18 h -11.4 z m 23.52,9.79 H 138 v 14.77 h 12.12 c 4.49,0 7.86,-2.89 7.86,-7.38 0,-4.49 -3.37,-7.39 -7.86,-7.39 z" />
  <path
     id="path839"
     d="m 178.75,25.8 h 11.4 v 43.5 h 22.63 v 10 h -34 z" />
  <path
     id="path841"
     d="m 221,25.8 h 11.55 v 31.78 c 0,7.47 4.1,12.61 12.44,12.61 8.34,0 12.28,-5.14 12.28,-12.61 V 25.8 h 11.53 v 32.11 c 0,13.32 -7.62,22.39 -23.84,22.39 -16.22,0 -24,-9.15 -24,-22.31 z" />
  <path
     id="path843"
     d="M 302.32,60.15 H 294 V 79.33 H 282.6 V 25.8 h 25 c 11.16,0 18,7.31 18,17.26 0,9.47 -5.94,14.52 -11.72,15.89 l 12,20.38 h -13.04 z m 3.61,-24.56 H 294 v 14.77 h 11.95 c 4.58,0 8,-2.89 8,-7.38 0,-4.49 -3.44,-7.39 -8.02,-7.39 z" />
  <path
     id="path845"
     d="m 337.18,25.8 h 11.39 v 53.53 h -11.39 z" />
  <path
     id="path847"
     d="m 362.38,25.8 h 28.17 c 10.19,0 15.41,6.5 15.41,13.65 0,6.74 -4.18,11.23 -9.23,12.28 5.7,0.88 10.27,6.42 10.27,13.16 0,8 -5.38,14.44 -15.57,14.44 h -29.05 z m 25.68,21.51 c 3.85,0 6.26,-2.49 6.26,-5.94 0,-3.29 -2.41,-5.86 -6.26,-5.86 h -14.29 v 11.8 z m 0.4,22.31 c 4.33,0 6.9,-2.48 6.9,-6.34 0,-3.37 -2.41,-6.26 -6.9,-6.26 h -14.69 v 12.6 z" />
  <path
     id="path849"
     d="m 418.27,25.8 h 11.55 v 31.78 c 0,7.47 4.1,12.61 12.44,12.61 8.34,0 12.28,-5.14 12.28,-12.61 V 25.8 h 11.56 v 32.11 c 0,13.32 -7.62,22.39 -23.84,22.39 -16.22,0 -24,-9.15 -24,-22.31 z" />
  <path
     id="path851"
     d="m 481.65,63.12 a 23.44,23.44 0 0 0 17,7.23 c 6.26,0 9.31,-3 9.31,-6 0,-4 -4.66,-5.38 -10.84,-6.83 -8.75,-2 -20,-4.41 -20,-16.37 0,-8.91 7.7,-16.13 20.3,-16.13 8.51,0 15.57,2.57 20.87,7.46 L 512,40.81 A 22.84,22.84 0 0 0 496.66,35 c -5.14,0 -7.86,2.25 -7.86,5.46 0,3.61 4.49,4.73 10.67,6.18 8.83,2 20.06,4.65 20.06,16.53 0,9.79 -7,17.18 -21.42,17.18 -10.28,0 -17.66,-3.45 -22.72,-8.51 z" />
  <path
     id="path853"
     d="m 126.6,97.72 h 9.55 c 8.35,0 13.88,5.7 13.88,13.4 0,7.7 -5.53,13.36 -13.88,13.36 h -9.55 z m 9.55,23.28 c 6.18,0 9.75,-4.42 9.75,-9.83 0,-5.41 -3.45,-9.87 -9.75,-9.87 h -5.54 V 121 Z" />
  <path
     id="path855"
     d="m 166.83,97.72 h 4 v 26.76 h -4 z" />
  <path
     id="path857"
     d="m 201.47,97.28 a 12.58,12.58 0 0 1 10.59,5.29 l -3.25,1.89 a 9.22,9.22 0 0 0 -7.34,-3.61 c -5.58,0 -9.75,4.25 -9.75,10.27 0,6.02 4.17,10.31 9.75,10.31 a 10.41,10.41 0 0 0 6.78,-2.65 V 114 h -8.59 v -3.53 h 12.6 v 9.83 a 14.23,14.23 0 0 1 -10.79,4.7 13.47,13.47 0 0 1 -13.89,-13.88 c 0,-8.35 6.22,-13.84 13.89,-13.84 z" />
  <path
     id="path859"
     d="m 229.7,97.72 h 4 v 26.76 h -4 z" />
  <path
     id="path861"
     d="m 257.58,101.25 h -8.3 v -3.53 h 20.58 v 3.53 h -8.27 v 23.23 h -4 z" />
  <path
     id="path863"
     d="m 299.49,118.94 h -13.12 l -2.17,5.54 h -4.41 l 10.63,-26.76 h 5 l 10.64,26.76 h -4.42 z m -12,-3.57 h 10.79 l -5.41,-14.16 z" />
  <path
     id="path865"
     d="m 321.22,97.72 h 4 V 121 h 12.16 v 3.53 h -16.16 z" />
  <polygon
     transform="translate(-50,-50)"
     id="polygon867"
     points="93.3,150 136.6,125 93.3,100 93.3,150 "
     class="cls-1" />
  <polygon
     transform="translate(-50,-50)"
     id="polygon869"
     points="136.6,125 136.6,75 93.3,100 "
     class="cls-2" />
  <polygon
     transform="translate(-50,-50)"
     id="polygon871"
     points="93.3,50 50,75 93.3,100 "
     class="cls-3" />
  <polygon
     transform="translate(-50,-50)"
     id="polygon873"
     points="136.6,75 93.3,50 93.3,100 "
     class="cls-4" />
  <polygon
     transform="translate(-50,-50)"
     id="polygon875"
     points="93.3,150 93.3,150 93.3,150 50,175 93.3,200 "
     class="cls-5" />
  <polygon
     transform="translate(-50,-50)"
     id="polygon877"
     points="50,175 93.3,150 50,125 "
     class="cls-6" />
  <polygon
     transform="translate(-50,-50)"
     id="polygon879"
     points=""
     class="cls-5" />
</svg>
